<?xml version="1.0" encoding="iso-8859-1"?>
<!-- Generator: Adobe Illustrator 19.0.0, SVG Export Plug-In . SVG Version: 6.00 Build 0)  -->
<svg version="1.1" id="Layer_1" xmlns="http://www.w3.org/2000/svg" xmlns:xlink="http://www.w3.org/1999/xlink" x="0px" y="0px"
	 viewBox="0 0 512 512" style="enable-background:new 0 0 512 512;" xml:space="preserve">
<g>
	<g>
		<path d="M437.02,171.671c-48.351-48.352-112.639-74.98-181.02-74.98s-132.668,26.628-181.02,74.981
			C26.628,220.024,0,284.311,0,352.691c0,5.632,4.567,10.199,10.199,10.199h183.285c5.262,29.747,31.283,52.419,62.516,52.419
			c31.234,0,57.253-22.672,62.516-52.419h183.285c5.632,0,10.199-4.567,10.199-10.199C512,284.311,485.372,220.024,437.02,171.671z
			 M193.184,342.492H20.614c2.356-55.717,24-107.967,61.731-149.032l121.781,121.78
			C198.511,323.181,194.665,332.454,193.184,342.492z M256,394.91c-23.769,0-43.107-19.338-43.107-43.108
			c0-23.769,19.338-43.107,43.107-43.107s43.107,19.338,43.107,43.107C299.107,375.572,279.769,394.91,256,394.91z M243.455,289.548
			v-103.35c0-6.917,5.628-12.545,12.545-12.545s12.545,5.628,12.545,12.545v103.35c-4.057-0.816-8.251-1.25-12.545-1.25
			S247.512,288.731,243.455,289.548z M293.6,300.666c-1.505-1.11-3.056-2.161-4.658-3.137v-111.33
			c0-18.166-14.778-32.943-32.943-32.943c-18.166,0-32.943,14.778-32.943,32.943V297.53c-1.602,0.976-3.153,2.028-4.658,3.137
			L96.768,179.036c43.561-40.026,99.71-61.947,159.232-61.947s115.671,21.921,159.232,61.947L293.6,300.666z M318.816,342.492
			c-1.482-10.038-5.327-19.31-10.941-27.252l121.781-121.78c37.731,41.064,59.374,93.315,61.731,149.032H318.816z"/>
	</g>
</g>
<g>
	<g>
		<path d="M466.104,312.095h-4.08c-5.632,0-10.199,4.567-10.199,10.199c0,5.632,4.567,10.199,10.199,10.199h4.08
			c5.632,0,10.199-4.567,10.199-10.199C476.303,316.662,471.736,312.095,466.104,312.095z"/>
	</g>
</g>
<g>
	<g>
		<path d="M428.367,312.095h-73.434c-5.632,0-10.199,4.567-10.199,10.199c0,5.632,4.567,10.199,10.199,10.199h73.434
			c5.632,0,10.199-4.567,10.199-10.199C438.566,316.662,433.999,312.095,428.367,312.095z"/>
	</g>
</g>
<g>
</g>
<g>
</g>
<g>
</g>
<g>
</g>
<g>
</g>
<g>
</g>
<g>
</g>
<g>
</g>
<g>
</g>
<g>
</g>
<g>
</g>
<g>
</g>
<g>
</g>
<g>
</g>
<g>
</g>
</svg>
